# xmcd
#
# Track frame offsets: 
#        150
#        10555
#        21186
#        32483
#        44644
#        56938
#        66227
#        77694
#        87863
#        97611
#        107459
#        119095
#        129842
#        141883
#        153985
#        166325
#        176783
#        187882
#        198434
#        209673
#        221136
#        232972
#        245370
#        253856
#        263197
#        273735
#
# Disc length: 3787 seconds
#
# Revision: 1
# Processed by: cddbd v1.5.2PL0 Copyright (c) Steve Scherf et al.
# Submitted via: ExactAudioCopy v0.99pb5
#
DISCID=710ec91a
DTITLE=Al Terry - Hickory's Cajun Hillbilly: The Best Of The Hickory R
DTITLE=ecordings And More
DYEAR=2007
DGENRE=Country
TTITLE0=Good Deal Lucille (Version 1)
TTITLE1=Say A Prayer For Me
TTITLE2=Goodbye Mr. Sunshine
TTITLE3=Promise Made Promise Broken
TTITLE4=Shoot Me A Line
TTITLE5=Show Me That You Love Me
TTITLE6=Let's Postpone Our Wedding
TTITLE7=Hey Whatta Y'Say
TTITLE8=House Of Glass
TTITLE9=No Shrimp Today
TTITLE10=Gone Again
TTITLE11=If I Win I Win
TTITLE12=(Dear God) I Love Her So
TTITLE13=Follow Me
TTITLE14=No No John
TTITLE15=Then Your're Living Just Like Me
TTITLE16=The Wall Around Your Heart
TTITLE17=Hate Me Not
TTITLE18=Without You (Remake)
TTITLE19=Roughneck Blues
TTITLE20=It's Better Late Than Never
TTITLE21=Am I Seeing Things
TTITLE22=Passing The Blues Around
TTITLE23=Watch Dog
TTITLE24=Because I'm Yours (But You're Not Mine)
TTITLE25=Good Deal Lucille (Version 2)
EXTD=
EXTT0=
EXTT1=
EXTT2=
EXTT3=
EXTT4=
EXTT5=
EXTT6=
EXTT7=
EXTT8=
EXTT9=
EXTT10=
EXTT11=
EXTT12=
EXTT13=
EXTT14=
EXTT15=
EXTT16=
EXTT17=
EXTT18=
EXTT19=
EXTT20=
EXTT21=
EXTT22=
EXTT23=
EXTT24=
EXTT25=
PLAYORDER=
